# Wavefront OBJ file made by Mineways version 7.00, http://mineways.com
# Minecraft world: F Seaworld
# Terrain file name: D:\Data\Fred\Games\Minecraft\Apps\Mineways\terrainExt.png
# Color scheme: Standard
# Sun Aug 25 12:45:32 2019

# Selection location min to max: -996, 60, 3801 to -996, 63, 3805
#   Non-empty selection location min to max: -996, 60, 3801 to -996, 63, 3805

# Set render type: Wavefront OBJ relative indices
# Units for the model vertex data itself: meters

# 82 vertices, 63 faces (126 triangles), 11 blocks, 5 billboards/bits
# block dimensions: X=2 by Y=5 (height) by Z=6 blocks
# File type: Export full color texture patterns
# Texture output RGB: YES
# Texture output A: YES
# Texture output RGBA: YES
# OBJ relative coordinates
# Export separate objects: YES
# Individual blocks: no
#   Material per object: YES
#   Split by block type: no
# G3D full material: no
# Make Z the up direction instead of Y: no
# Create composite overlay faces: no
# Center model: YES
# Export lesser blocks: YES
# Fatten lesser blocks: no
# Create block faces at the borders: YES
# Make tree leaves solid: no
# Use biomes: no
# Rotate model 0.000000 degrees
# Scale model by making each block 1000 mm high
# Data operation options:
#   Fill air bubbles: no; Seal off entrances: no; Fill in isolated tunnels in base of model: no
#   Connect parts sharing an edge: no; Connect corner tips: no; Weld all shared edges: no
#   Delete floating objects: trees and parts smaller than 16 blocks: no
#   Hollow out bottom of model, making the walls 1000 mm thick: no; Superhollow: no
# Melt snow blocks: no
#   Debug: show separate parts as colors: no
#   Debug: show weld blocks in bright colors: no

# Full world path: C:\Users\Fred\AppData\Roaming\.minecraft\saves\F Seaworld
# Full terrainExt.png path: D:\Data\Fred\Games\Minecraft\Apps\Mineways\terrainExt.png
# Full current path: D:\Data\Fred\Games\Minecraft\Apps\Mineways

mtllib Mineways2Skfb.mtl

o F_Seaworld__-996_60_3801_to_-996_63_3805
vn -1 0 0
vn 0 -1 0
vn 0 0 -1
vn 1 0 0
vn 0 1 0
vn 0 0 1
vn -0.707107 0 -0.707107
vn -0.707107 0 0.707107
vn 0.707107 0 -0.707107
vn 0.707107 0 0.707107
vn -0.707107 -0.707107 0
vn 0 -0.707107 -0.707107
vn 0.707107 -0.707107 0
vn 0 -0.707107 0.707107
vn -0.707107 0.707107 0
vn 0 0.707107 -0.707107
vn 0.707107 0.707107 0
vn 0 0.707107 0.707107
vn -0.92388 0 -0.382683
vn -0.92388 0 0.382683
vn 0.92388 0 -0.382683
vn 0.92388 0 0.382683
vn -0.382683 0 -0.92388
vn -0.382683 0 0.92388
vn 0.382683 0 -0.92388
vn 0.382683 0 0.92388
vn -0.397273 0.9177 0
vn 0.397273 -0.9177 0
vn 0.397273 0.9177 0
vn -0.397273 -0.9177 0
vn 0 0.9177 -0.397273
vn 0 -0.9177 0.397273
vn 0 0.9177 0.397273
vn 0 -0.9177 -0.397273
vn -0.440932 0.897541 0
vn 0.440932 -0.897541 0
vn 0.440932 0.897541 0
vn -0.440932 -0.897541 0
vn 0 0.897541 -0.440932
vn 0 -0.897541 0.440932
vn 0 0.897541 0.440932
vn 0 -0.897541 -0.440932
# Dark Oak Button
vt 0.599609 0.556641
vt 0.603516 0.556641
vt 0.603516 0.564453
vt 0.599609 0.564453
vt 0.609375 0.572266
vt 0.623047 0.572266
vt 0.623047 0.576172
vt 0.609375 0.576172
vt 0.626953 0.556641
vt 0.630859 0.556641
vt 0.630859 0.564453
vt 0.626953 0.564453
vt 0.609375 0.556641
vt 0.623047 0.556641
vt 0.623047 0.564453
vt 0.609375 0.564453
# Birch Stairs
vt 0.634766 0.720703
vt 0.666016 0.720703
vt 0.666016 0.736328
vt 0.634766 0.736328
vt 0.666016 0.751953
vt 0.634766 0.751953
vt 0.650391 0.736328
vt 0.650391 0.751953
# Sticky Piston
vt 0.845703 0.861328
vt 0.876953 0.861328
vt 0.876953 0.892578
vt 0.845703 0.892578
# Sticky Piston
vt 0.880859 0.861328
vt 0.912109 0.861328
vt 0.912109 0.892578
vt 0.880859 0.892578
# Observer
vt 0.951172 0.333984
vt 0.982422 0.333984
vt 0.982422 0.365234
vt 0.951172 0.365234
# Observer
vt 0.916016 0.333984
vt 0.947266 0.333984
vt 0.947266 0.365234
vt 0.916016 0.365234
# Observer
vt 0.00195313 0.298828
vt 0.0332031 0.298828
vt 0.0332031 0.330078
vt 0.00195313 0.330078
# Observer
vt 0.845703 0.333984
vt 0.876953 0.333984
vt 0.876953 0.365234
vt 0.845703 0.365234
# Dirt
vt 0.0722656 0.966797
vt 0.103516 0.966797
vt 0.103516 0.998047
vt 0.0722656 0.998047
# Stone
vt 0.810547 0.544922
vt 0.841797 0.544922
vt 0.841797 0.576172
vt 0.810547 0.576172
v 0.0625 0.075 0.4
v 0.0625 0.075 0.425
v 0.0625 0.125 0.4
v 0.0625 0.125 0.425
v 0.15 0.075 0.4
v 0.15 0.075 0.425
v 0.15 0.125 0.4
v 0.15 0.125 0.425
v 0 0.6 -0.2
v 0 0.6 0
v 0 0.7 -0.2
v 0 0.7 0
v 0.2 0.6 -0.2
v 0.2 0.6 0
v 0.2 0.7 -0.2
v 0.2 0.7 0
v 0 0.7 -0.1
v 0 0.7 0
v 0 0.8 -0.1
v 0 0.8 0
v 0.2 0.7 -0.1
v 0.2 0.7 0
v 0.2 0.8 -0.1
v 0.2 0.8 0
v 0 0.6 0
v 0 0.6 0.2
v 0 0.7 0
v 0 0.7 0.2
v 0.2 0.6 0
v 0.2 0.6 0.2
v 0.2 0.7 0
v 0.2 0.7 0.2
v 0 0.7 0.1
v 0 0.7 0.2
v 0 0.8 0.1
v 0 0.8 0.2
v 0.2 0.7 0.1
v 0.2 0.7 0.2
v 0.2 0.8 0.1
v 0.2 0.8 0.2
v 0 0 -0.4
v 0 0 -0.2
v 0 0.2 -0.2
v 0 0.2 -0.4
v 0.2 0 -0.2
v 0.2 0 -0.4
v 0.2 0.2 -0.4
v 0.2 0.2 -0.2
v 0 0.4 -0.2
v 0 0.4 -0.4
v 0.2 0.4 -0.4
v 0.2 0.4 -0.2
v 0 0 0
v 0 0.2 0
v 0.2 0 0
v 0.2 0.2 0
v 0 0.4 0
v 0 0.6 0
v 0 0.6 -0.2
v 0.2 0.4 0
v 0.2 0.6 -0.2
v 0.2 0.6 0
v 0 0 0.2
v 0 0.2 0.2
v 0.2 0 0.2
v 0.2 0.2 0.2
v 0 0.4 0.2
v 0.2 0.4 0.2
v 0 0.6 0.2
v 0.2 0.6 0.2
v 0 0 0.4
v 0 0.2 0.4
v 0.2 0 0.4
v 0.2 0.2 0.4
v 0 0.4 0.4
v 0.2 0.4 0.4
v 0 0.6 0.4
v 0.2 0.6 0.4
v 0 0.8 0.4
v 0 0.8 0.2
v 0.2 0.8 0.2
v 0.2 0.8 0.4

g Stone
usemtl Stone
f -6/-3/-42 -4/-2/-42 -3/-1/-42 -14/-4/-42
f -5/-4/-39 -13/-3/-39 -2/-2/-39 -1/-1/-39
f -4/-4/-38 -1/-3/-38 -2/-2/-38 -3/-1/-38
f -6/-4/-37 -5/-3/-37 -1/-2/-37 -4/-1/-37

g Dirt
usemtl Dirt
f -20/-7/-42 -19/-6/-42 -29/-5/-42 -30/-8/-42
f -20/-8/-41 -30/-5/-41 -28/-6/-41 -18/-7/-41
f -18/-8/-39 -28/-7/-39 -27/-6/-39 -17/-5/-39

g Sticky_Piston
usemtl Sticky_Piston
f -41/-31/-42 -40/-30/-42 -39/-29/-42 -42/-32/-42
f -41/-26/-41 -42/-27/-41 -37/-28/-41 -38/-25/-41
f -42/-31/-40 -39/-30/-40 -36/-29/-40 -37/-32/-40
f -38/-32/-39 -37/-31/-39 -36/-30/-39 -35/-29/-39
f -26/-31/-42 -25/-30/-42 -24/-29/-42 -34/-32/-42
f -26/-26/-41 -34/-27/-41 -31/-28/-41 -23/-25/-41
f -34/-31/-40 -24/-30/-40 -22/-29/-40 -31/-32/-40
f -23/-32/-39 -31/-31/-39 -22/-30/-39 -21/-29/-39
f -19/-31/-42 -16/-30/-42 -26/-29/-42 -29/-32/-42
f -29/-31/-40 -26/-30/-40 -23/-29/-40 -27/-32/-40
f -17/-32/-39 -27/-31/-39 -23/-30/-39 -15/-29/-39
f -16/-31/-42 -14/-30/-42 -25/-29/-42 -26/-32/-42
f -15/-32/-39 -23/-31/-39 -21/-30/-39 -13/-29/-39

g Birch_Stairs
usemtl Birch_Stairs
f -72/-37/-42 -74/-40/-42 -73/-39/-42 -71/-38/-42
f -73/-40/-41 -74/-35/-41 -70/-36/-41 -69/-39/-41
f -68/-37/-40 -70/-40/-40 -74/-39/-40 -72/-38/-40
f -68/-38/-39 -67/-37/-39 -69/-40/-39 -70/-39/-39
f -68/-36/-38 -72/-35/-38 -71/-40/-38 -67/-39/-38
f -64/-33/-42 -66/-34/-42 -65/-38/-42 -63/-36/-42
f -60/-35/-40 -62/-37/-40 -66/-38/-40 -64/-36/-40
f -60/-33/-39 -59/-35/-39 -61/-37/-39 -62/-34/-39
f -60/-38/-38 -64/-37/-38 -63/-40/-38 -59/-39/-38
f -59/-36/-37 -63/-35/-37 -65/-37/-37 -61/-38/-37
f -56/-37/-42 -58/-40/-42 -57/-39/-42 -55/-38/-42
f -57/-40/-41 -58/-35/-41 -54/-36/-41 -53/-39/-41
f -52/-37/-40 -54/-40/-40 -58/-39/-40 -56/-38/-40
f -52/-38/-39 -51/-37/-39 -53/-40/-39 -54/-39/-39
f -52/-36/-38 -56/-35/-38 -55/-40/-38 -51/-39/-38
f -48/-33/-42 -50/-34/-42 -49/-38/-42 -47/-36/-42
f -44/-35/-40 -46/-37/-40 -50/-38/-40 -48/-36/-40
f -44/-33/-39 -43/-35/-39 -45/-37/-39 -46/-34/-39
f -44/-38/-38 -48/-37/-38 -47/-40/-38 -43/-39/-38

g Observer
usemtl Observer
f -40/-23/-42 -34/-22/-42 -33/-21/-42 -39/-24/-42
f -39/-19/-40 -33/-18/-40 -32/-17/-40 -36/-20/-40
f -35/-24/-39 -36/-23/-39 -32/-22/-39 -31/-21/-39
f -34/-13/-38 -31/-14/-38 -32/-15/-38 -33/-16/-38
f -40/-12/-37 -35/-11/-37 -31/-10/-37 -34/-9/-37
f -30/-23/-42 -29/-22/-42 -40/-21/-42 -41/-24/-42
f -30/-15/-41 -41/-14/-41 -38/-13/-41 -28/-16/-41
f -28/-24/-39 -38/-23/-39 -35/-22/-39 -27/-21/-39
f -29/-15/-38 -27/-16/-38 -35/-13/-38 -40/-14/-38
f -12/-23/-42 -11/-22/-42 -19/-21/-42 -20/-24/-42
f -12/-15/-41 -20/-14/-41 -18/-13/-41 -10/-16/-41
f -10/-24/-39 -18/-23/-39 -17/-22/-39 -9/-21/-39
f -12/-20/-37 -10/-19/-37 -9/-18/-37 -11/-17/-37
f -11/-22/-42 -8/-21/-42 -16/-24/-42 -19/-23/-42
f -9/-23/-39 -17/-22/-39 -15/-21/-39 -7/-24/-39
f -11/-16/-37 -9/-15/-37 -7/-14/-37 -8/-13/-37
f -8/-22/-42 -6/-21/-42 -14/-24/-42 -16/-23/-42
f -7/-23/-39 -15/-22/-39 -13/-21/-39 -5/-24/-39
f -8/-16/-37 -7/-15/-37 -5/-14/-37 -6/-13/-37

g Dark_Oak_Button
usemtl Dark_Oak_Button
f -80/-53/-42 -82/-56/-42 -81/-55/-42 -79/-54/-42
f -81/-52/-41 -82/-49/-41 -78/-50/-41 -77/-51/-41
f -76/-46/-39 -75/-45/-39 -77/-48/-39 -78/-47/-39
f -76/-50/-38 -80/-49/-38 -79/-52/-38 -75/-51/-38
f -75/-42/-37 -79/-41/-37 -81/-44/-37 -77/-43/-37
